<mxfile host="app.diagrams.net" modified="2023-05-10T07:28:08.984Z" agent="Mozilla/5.0 (Windows NT 10.0; Win64; x64) AppleWebKit/537.36 (KHTML, like Gecko) Chrome/113.0.0.0 Safari/537.36" etag="Y1G1g72FZ0I979dchQz1" version="21.2.9" type="device">
  <diagram name="Page-1" id="Ig5li8YnplBoDMJSDeY4">
    <mxGraphModel dx="1400" dy="945" grid="1" gridSize="10" guides="1" tooltips="1" connect="1" arrows="1" fold="1" page="1" pageScale="1" pageWidth="1200" pageHeight="1600" math="0" shadow="0">
      <root>
        <mxCell id="0" />
        <mxCell id="1" parent="0" />
        <mxCell id="j9Yn46ZGuWU1NOBtWqaZ-1" style="edgeStyle=orthogonalEdgeStyle;rounded=0;orthogonalLoop=1;jettySize=auto;html=1;entryX=0.5;entryY=0;entryDx=0;entryDy=0;" edge="1" parent="1" source="j9Yn46ZGuWU1NOBtWqaZ-2" target="j9Yn46ZGuWU1NOBtWqaZ-4">
          <mxGeometry relative="1" as="geometry" />
        </mxCell>
        <mxCell id="j9Yn46ZGuWU1NOBtWqaZ-2" value="&lt;b style=&quot;font-size: 20px;&quot;&gt;Input&amp;nbsp;&lt;/b&gt;&lt;br style=&quot;font-size: 20px;&quot;&gt;187x1" style="rounded=1;whiteSpace=wrap;html=1;fontSize=20;rotation=-90;" vertex="1" parent="1">
          <mxGeometry x="100" y="260" width="220" height="60" as="geometry" />
        </mxCell>
        <mxCell id="j9Yn46ZGuWU1NOBtWqaZ-3" style="edgeStyle=orthogonalEdgeStyle;rounded=0;orthogonalLoop=1;jettySize=auto;html=1;" edge="1" parent="1" source="j9Yn46ZGuWU1NOBtWqaZ-4" target="j9Yn46ZGuWU1NOBtWqaZ-7">
          <mxGeometry relative="1" as="geometry" />
        </mxCell>
        <mxCell id="j9Yn46ZGuWU1NOBtWqaZ-4" value="&lt;b&gt;Conv1D&amp;nbsp;&lt;br&gt;&lt;/b&gt;" style="rounded=1;whiteSpace=wrap;html=1;fontSize=20;rotation=-90;" vertex="1" parent="1">
          <mxGeometry x="190" y="260" width="220" height="60" as="geometry" />
        </mxCell>
        <mxCell id="j9Yn46ZGuWU1NOBtWqaZ-5" value="&lt;b&gt;&lt;font style=&quot;font-size: 21px;&quot;&gt;3x&lt;/font&gt;&lt;/b&gt;" style="text;html=1;align=center;verticalAlign=middle;resizable=0;points=[];autosize=1;strokeColor=none;fillColor=none;rotation=-90;" vertex="1" parent="1">
          <mxGeometry x="275" y="400" width="50" height="40" as="geometry" />
        </mxCell>
        <mxCell id="j9Yn46ZGuWU1NOBtWqaZ-87" style="edgeStyle=orthogonalEdgeStyle;rounded=0;orthogonalLoop=1;jettySize=auto;html=1;entryX=0.001;entryY=0.452;entryDx=0;entryDy=0;entryPerimeter=0;" edge="1" parent="1" source="j9Yn46ZGuWU1NOBtWqaZ-7" target="j9Yn46ZGuWU1NOBtWqaZ-9">
          <mxGeometry relative="1" as="geometry" />
        </mxCell>
        <mxCell id="j9Yn46ZGuWU1NOBtWqaZ-88" style="edgeStyle=orthogonalEdgeStyle;rounded=0;orthogonalLoop=1;jettySize=auto;html=1;" edge="1" parent="1" source="j9Yn46ZGuWU1NOBtWqaZ-7" target="j9Yn46ZGuWU1NOBtWqaZ-53">
          <mxGeometry relative="1" as="geometry" />
        </mxCell>
        <mxCell id="j9Yn46ZGuWU1NOBtWqaZ-7" value="&lt;b&gt;Max-pooling&lt;br&gt;&lt;/b&gt;" style="rounded=1;whiteSpace=wrap;html=1;fontSize=20;rotation=-90;" vertex="1" parent="1">
          <mxGeometry x="280" y="260" width="220" height="60" as="geometry" />
        </mxCell>
        <mxCell id="j9Yn46ZGuWU1NOBtWqaZ-8" value="" style="group" vertex="1" connectable="0" parent="1">
          <mxGeometry x="480" y="40" width="420" height="220" as="geometry" />
        </mxCell>
        <mxCell id="j9Yn46ZGuWU1NOBtWqaZ-9" value="" style="rounded=1;whiteSpace=wrap;html=1;fillColor=#D6D6D6;" vertex="1" parent="j9Yn46ZGuWU1NOBtWqaZ-8">
          <mxGeometry width="362.35294117647055" height="220" as="geometry" />
        </mxCell>
        <mxCell id="j9Yn46ZGuWU1NOBtWqaZ-10" value="" style="ellipse;whiteSpace=wrap;html=1;aspect=fixed;fillColor=#808080;" vertex="1" parent="j9Yn46ZGuWU1NOBtWqaZ-8">
          <mxGeometry x="57.647058823529406" y="34.375" width="27.273877292852625" height="27.273877292852625" as="geometry" />
        </mxCell>
        <mxCell id="j9Yn46ZGuWU1NOBtWqaZ-11" value="" style="ellipse;whiteSpace=wrap;html=1;aspect=fixed;fillColor=#808080;" vertex="1" parent="j9Yn46ZGuWU1NOBtWqaZ-8">
          <mxGeometry x="57.647058823529406" y="96.25" width="27.273877292852625" height="27.273877292852625" as="geometry" />
        </mxCell>
        <mxCell id="j9Yn46ZGuWU1NOBtWqaZ-12" value="" style="ellipse;whiteSpace=wrap;html=1;aspect=fixed;fillColor=#808080;" vertex="1" parent="j9Yn46ZGuWU1NOBtWqaZ-8">
          <mxGeometry x="57.647058823529406" y="158.125" width="27.273877292852625" height="27.273877292852625" as="geometry" />
        </mxCell>
        <mxCell id="j9Yn46ZGuWU1NOBtWqaZ-13" value="" style="endArrow=none;html=1;rounded=0;" edge="1" parent="j9Yn46ZGuWU1NOBtWqaZ-8">
          <mxGeometry width="50" height="50" relative="1" as="geometry">
            <mxPoint x="24.705882352941174" y="171.875" as="sourcePoint" />
            <mxPoint x="24.705882352941174" y="48.125" as="targetPoint" />
          </mxGeometry>
        </mxCell>
        <mxCell id="j9Yn46ZGuWU1NOBtWqaZ-14" value="" style="endArrow=classic;html=1;rounded=0;entryX=0;entryY=0.5;entryDx=0;entryDy=0;" edge="1" parent="j9Yn46ZGuWU1NOBtWqaZ-8" target="j9Yn46ZGuWU1NOBtWqaZ-10">
          <mxGeometry width="50" height="50" relative="1" as="geometry">
            <mxPoint x="24.705882352941174" y="48.125" as="sourcePoint" />
            <mxPoint x="181.17647058823528" y="110" as="targetPoint" />
          </mxGeometry>
        </mxCell>
        <mxCell id="j9Yn46ZGuWU1NOBtWqaZ-15" value="" style="endArrow=classic;html=1;rounded=0;" edge="1" parent="j9Yn46ZGuWU1NOBtWqaZ-8">
          <mxGeometry width="50" height="50" relative="1" as="geometry">
            <mxPoint x="24.705882352941174" y="171.875" as="sourcePoint" />
            <mxPoint x="57.647058823529406" y="171.875" as="targetPoint" />
          </mxGeometry>
        </mxCell>
        <mxCell id="j9Yn46ZGuWU1NOBtWqaZ-16" value="" style="endArrow=classic;html=1;rounded=0;entryX=0;entryY=0.5;entryDx=0;entryDy=0;" edge="1" parent="j9Yn46ZGuWU1NOBtWqaZ-8" target="j9Yn46ZGuWU1NOBtWqaZ-11">
          <mxGeometry width="50" height="50" relative="1" as="geometry">
            <mxPoint x="24.705882352941174" y="110" as="sourcePoint" />
            <mxPoint x="181.17647058823528" y="110" as="targetPoint" />
          </mxGeometry>
        </mxCell>
        <mxCell id="j9Yn46ZGuWU1NOBtWqaZ-17" value="" style="whiteSpace=wrap;html=1;aspect=fixed;fillColor=#FF9999;" vertex="1" parent="j9Yn46ZGuWU1NOBtWqaZ-8">
          <mxGeometry x="115.29411764705881" y="34.375" width="27.273877292852625" height="27.273877292852625" as="geometry" />
        </mxCell>
        <mxCell id="j9Yn46ZGuWU1NOBtWqaZ-18" value="" style="whiteSpace=wrap;html=1;aspect=fixed;fillColor=#FF9999;" vertex="1" parent="j9Yn46ZGuWU1NOBtWqaZ-8">
          <mxGeometry x="123.52941176470588" y="41.25" width="27.273877292852625" height="27.273877292852625" as="geometry" />
        </mxCell>
        <mxCell id="j9Yn46ZGuWU1NOBtWqaZ-19" value="" style="whiteSpace=wrap;html=1;aspect=fixed;fillColor=#FF9999;" vertex="1" parent="j9Yn46ZGuWU1NOBtWqaZ-8">
          <mxGeometry x="131.76470588235293" y="48.125" width="27.273877292852625" height="27.273877292852625" as="geometry" />
        </mxCell>
        <mxCell id="j9Yn46ZGuWU1NOBtWqaZ-20" value="" style="whiteSpace=wrap;html=1;aspect=fixed;fillColor=#CCFF99;" vertex="1" parent="j9Yn46ZGuWU1NOBtWqaZ-8">
          <mxGeometry x="115.29411764705881" y="96.25" width="27.273877292852625" height="27.273877292852625" as="geometry" />
        </mxCell>
        <mxCell id="j9Yn46ZGuWU1NOBtWqaZ-21" style="edgeStyle=orthogonalEdgeStyle;rounded=0;orthogonalLoop=1;jettySize=auto;html=1;entryX=0;entryY=0.5;entryDx=0;entryDy=0;" edge="1" parent="j9Yn46ZGuWU1NOBtWqaZ-8" source="j9Yn46ZGuWU1NOBtWqaZ-11" target="j9Yn46ZGuWU1NOBtWqaZ-20">
          <mxGeometry relative="1" as="geometry" />
        </mxCell>
        <mxCell id="j9Yn46ZGuWU1NOBtWqaZ-22" value="" style="whiteSpace=wrap;html=1;aspect=fixed;fillColor=#CCFF99;" vertex="1" parent="j9Yn46ZGuWU1NOBtWqaZ-8">
          <mxGeometry x="123.52941176470588" y="103.125" width="27.273877292852625" height="27.273877292852625" as="geometry" />
        </mxCell>
        <mxCell id="j9Yn46ZGuWU1NOBtWqaZ-23" value="" style="whiteSpace=wrap;html=1;aspect=fixed;fillColor=#CCFF99;" vertex="1" parent="j9Yn46ZGuWU1NOBtWqaZ-8">
          <mxGeometry x="131.76470588235293" y="110" width="27.273877292852625" height="27.273877292852625" as="geometry" />
        </mxCell>
        <mxCell id="j9Yn46ZGuWU1NOBtWqaZ-24" value="" style="whiteSpace=wrap;html=1;aspect=fixed;fillColor=#007FFF;" vertex="1" parent="j9Yn46ZGuWU1NOBtWqaZ-8">
          <mxGeometry x="115.29411764705881" y="158.125" width="27.273877292852625" height="27.273877292852625" as="geometry" />
        </mxCell>
        <mxCell id="j9Yn46ZGuWU1NOBtWqaZ-25" value="" style="whiteSpace=wrap;html=1;aspect=fixed;fillColor=#007FFF;" vertex="1" parent="j9Yn46ZGuWU1NOBtWqaZ-8">
          <mxGeometry x="123.52941176470588" y="165" width="27.273877292852625" height="27.273877292852625" as="geometry" />
        </mxCell>
        <mxCell id="j9Yn46ZGuWU1NOBtWqaZ-26" value="" style="whiteSpace=wrap;html=1;aspect=fixed;fillColor=#007FFF;" vertex="1" parent="j9Yn46ZGuWU1NOBtWqaZ-8">
          <mxGeometry x="131.76470588235293" y="171.875" width="27.273877292852625" height="27.273877292852625" as="geometry" />
        </mxCell>
        <mxCell id="j9Yn46ZGuWU1NOBtWqaZ-27" value="" style="endArrow=classic;html=1;rounded=0;exitX=1;exitY=0.5;exitDx=0;exitDy=0;entryX=0;entryY=0.5;entryDx=0;entryDy=0;" edge="1" parent="j9Yn46ZGuWU1NOBtWqaZ-8" source="j9Yn46ZGuWU1NOBtWqaZ-12" target="j9Yn46ZGuWU1NOBtWqaZ-24">
          <mxGeometry width="50" height="50" relative="1" as="geometry">
            <mxPoint x="140" y="144.375" as="sourcePoint" />
            <mxPoint x="181.17647058823528" y="110" as="targetPoint" />
          </mxGeometry>
        </mxCell>
        <mxCell id="j9Yn46ZGuWU1NOBtWqaZ-28" value="" style="endArrow=classic;html=1;rounded=0;exitX=1;exitY=0.5;exitDx=0;exitDy=0;entryX=0;entryY=0.5;entryDx=0;entryDy=0;" edge="1" parent="j9Yn46ZGuWU1NOBtWqaZ-8" source="j9Yn46ZGuWU1NOBtWqaZ-10" target="j9Yn46ZGuWU1NOBtWqaZ-17">
          <mxGeometry width="50" height="50" relative="1" as="geometry">
            <mxPoint x="140" y="144.375" as="sourcePoint" />
            <mxPoint x="181.17647058823528" y="110" as="targetPoint" />
          </mxGeometry>
        </mxCell>
        <mxCell id="j9Yn46ZGuWU1NOBtWqaZ-29" value="" style="ellipse;whiteSpace=wrap;html=1;aspect=fixed;" vertex="1" parent="j9Yn46ZGuWU1NOBtWqaZ-8">
          <mxGeometry x="214.11764705882354" y="75.625" width="27.273877292852625" height="27.273877292852625" as="geometry" />
        </mxCell>
        <mxCell id="j9Yn46ZGuWU1NOBtWqaZ-30" style="edgeStyle=orthogonalEdgeStyle;rounded=0;orthogonalLoop=1;jettySize=auto;html=1;entryX=0.5;entryY=0;entryDx=0;entryDy=0;" edge="1" parent="j9Yn46ZGuWU1NOBtWqaZ-8" source="j9Yn46ZGuWU1NOBtWqaZ-19" target="j9Yn46ZGuWU1NOBtWqaZ-29">
          <mxGeometry relative="1" as="geometry">
            <Array as="points">
              <mxPoint x="230.58823529411762" y="61.875" />
            </Array>
          </mxGeometry>
        </mxCell>
        <mxCell id="j9Yn46ZGuWU1NOBtWqaZ-31" value="" style="endArrow=none;html=1;rounded=0;entryX=1;entryY=0;entryDx=0;entryDy=0;exitX=0;exitY=1;exitDx=0;exitDy=0;" edge="1" parent="j9Yn46ZGuWU1NOBtWqaZ-8" source="j9Yn46ZGuWU1NOBtWqaZ-29" target="j9Yn46ZGuWU1NOBtWqaZ-29">
          <mxGeometry width="50" height="50" relative="1" as="geometry">
            <mxPoint x="164.70588235294116" y="158.125" as="sourcePoint" />
            <mxPoint x="205.88235294117646" y="123.75" as="targetPoint" />
          </mxGeometry>
        </mxCell>
        <mxCell id="j9Yn46ZGuWU1NOBtWqaZ-32" style="edgeStyle=orthogonalEdgeStyle;rounded=0;orthogonalLoop=1;jettySize=auto;html=1;entryX=0.5;entryY=1;entryDx=0;entryDy=0;" edge="1" parent="j9Yn46ZGuWU1NOBtWqaZ-8" source="j9Yn46ZGuWU1NOBtWqaZ-23" target="j9Yn46ZGuWU1NOBtWqaZ-29">
          <mxGeometry relative="1" as="geometry" />
        </mxCell>
        <mxCell id="j9Yn46ZGuWU1NOBtWqaZ-33" value="" style="endArrow=none;html=1;rounded=0;entryX=0;entryY=0;entryDx=0;entryDy=0;exitX=1;exitY=1;exitDx=0;exitDy=0;" edge="1" parent="j9Yn46ZGuWU1NOBtWqaZ-8" source="j9Yn46ZGuWU1NOBtWqaZ-29" target="j9Yn46ZGuWU1NOBtWqaZ-29">
          <mxGeometry width="50" height="50" relative="1" as="geometry">
            <mxPoint x="164.70588235294116" y="158.125" as="sourcePoint" />
            <mxPoint x="205.88235294117646" y="123.75" as="targetPoint" />
          </mxGeometry>
        </mxCell>
        <mxCell id="j9Yn46ZGuWU1NOBtWqaZ-34" value="" style="edgeStyle=orthogonalEdgeStyle;rounded=0;orthogonalLoop=1;jettySize=auto;html=1;" edge="1" parent="j9Yn46ZGuWU1NOBtWqaZ-8" source="j9Yn46ZGuWU1NOBtWqaZ-35">
          <mxGeometry relative="1" as="geometry">
            <mxPoint x="360" y="117" as="targetPoint" />
          </mxGeometry>
        </mxCell>
        <mxCell id="j9Yn46ZGuWU1NOBtWqaZ-35" value="" style="ellipse;whiteSpace=wrap;html=1;aspect=fixed;" vertex="1" parent="j9Yn46ZGuWU1NOBtWqaZ-8">
          <mxGeometry x="296.4705882352941" y="103.125" width="27.273877292852625" height="27.273877292852625" as="geometry" />
        </mxCell>
        <mxCell id="j9Yn46ZGuWU1NOBtWqaZ-36" value="" style="endArrow=none;html=1;rounded=0;entryX=1;entryY=0;entryDx=0;entryDy=0;exitX=0;exitY=1;exitDx=0;exitDy=0;" edge="1" parent="j9Yn46ZGuWU1NOBtWqaZ-8" source="j9Yn46ZGuWU1NOBtWqaZ-35" target="j9Yn46ZGuWU1NOBtWqaZ-35">
          <mxGeometry width="50" height="50" relative="1" as="geometry">
            <mxPoint x="247.05882352941177" y="185.625" as="sourcePoint" />
            <mxPoint x="288.2352941176471" y="151.25" as="targetPoint" />
          </mxGeometry>
        </mxCell>
        <mxCell id="j9Yn46ZGuWU1NOBtWqaZ-37" value="" style="endArrow=none;html=1;rounded=0;entryX=0;entryY=0;entryDx=0;entryDy=0;exitX=1;exitY=1;exitDx=0;exitDy=0;" edge="1" parent="j9Yn46ZGuWU1NOBtWqaZ-8" source="j9Yn46ZGuWU1NOBtWqaZ-35" target="j9Yn46ZGuWU1NOBtWqaZ-35">
          <mxGeometry width="50" height="50" relative="1" as="geometry">
            <mxPoint x="247.05882352941177" y="185.625" as="sourcePoint" />
            <mxPoint x="288.2352941176471" y="151.25" as="targetPoint" />
          </mxGeometry>
        </mxCell>
        <mxCell id="j9Yn46ZGuWU1NOBtWqaZ-38" value="&lt;b&gt;&lt;font style=&quot;font-size: 18px;&quot;&gt;Multi-Head Attention&lt;/font&gt;&lt;/b&gt;" style="text;html=1;align=center;verticalAlign=middle;resizable=0;points=[];autosize=1;strokeColor=none;fillColor=none;" vertex="1" parent="j9Yn46ZGuWU1NOBtWqaZ-8">
          <mxGeometry x="98.8235294117647" width="200" height="40" as="geometry" />
        </mxCell>
        <mxCell id="j9Yn46ZGuWU1NOBtWqaZ-39" style="edgeStyle=orthogonalEdgeStyle;rounded=0;orthogonalLoop=1;jettySize=auto;html=1;entryX=0.5;entryY=1;entryDx=0;entryDy=0;" edge="1" parent="j9Yn46ZGuWU1NOBtWqaZ-8" source="j9Yn46ZGuWU1NOBtWqaZ-26" target="j9Yn46ZGuWU1NOBtWqaZ-35">
          <mxGeometry relative="1" as="geometry" />
        </mxCell>
        <mxCell id="j9Yn46ZGuWU1NOBtWqaZ-40" style="edgeStyle=orthogonalEdgeStyle;rounded=0;orthogonalLoop=1;jettySize=auto;html=1;entryX=0.5;entryY=0;entryDx=0;entryDy=0;" edge="1" parent="j9Yn46ZGuWU1NOBtWqaZ-8" source="j9Yn46ZGuWU1NOBtWqaZ-29" target="j9Yn46ZGuWU1NOBtWqaZ-35">
          <mxGeometry relative="1" as="geometry" />
        </mxCell>
        <mxCell id="j9Yn46ZGuWU1NOBtWqaZ-41" style="edgeStyle=orthogonalEdgeStyle;rounded=0;orthogonalLoop=1;jettySize=auto;html=1;entryX=0.5;entryY=0;entryDx=0;entryDy=0;" edge="1" parent="1" source="j9Yn46ZGuWU1NOBtWqaZ-42" target="j9Yn46ZGuWU1NOBtWqaZ-44">
          <mxGeometry relative="1" as="geometry" />
        </mxCell>
        <mxCell id="j9Yn46ZGuWU1NOBtWqaZ-42" value="&lt;b&gt;Dropout (0.5)&lt;br&gt;&lt;/b&gt;" style="rounded=1;whiteSpace=wrap;html=1;fontSize=20;rotation=-90;" vertex="1" parent="1">
          <mxGeometry x="1010" y="240" width="220" height="60" as="geometry" />
        </mxCell>
        <mxCell id="j9Yn46ZGuWU1NOBtWqaZ-43" style="edgeStyle=orthogonalEdgeStyle;rounded=0;orthogonalLoop=1;jettySize=auto;html=1;" edge="1" parent="1" source="j9Yn46ZGuWU1NOBtWqaZ-44" target="j9Yn46ZGuWU1NOBtWqaZ-45">
          <mxGeometry relative="1" as="geometry" />
        </mxCell>
        <mxCell id="j9Yn46ZGuWU1NOBtWqaZ-44" value="&lt;b&gt;Flatten&lt;br&gt;&lt;/b&gt;" style="rounded=1;whiteSpace=wrap;html=1;fontSize=20;rotation=-90;" vertex="1" parent="1">
          <mxGeometry x="1100" y="240" width="220" height="60" as="geometry" />
        </mxCell>
        <mxCell id="j9Yn46ZGuWU1NOBtWqaZ-45" value="&lt;b&gt;Dense (5 class)&lt;br&gt;&lt;/b&gt;" style="rounded=1;whiteSpace=wrap;html=1;fontSize=20;rotation=-90;" vertex="1" parent="1">
          <mxGeometry x="1190" y="240" width="220" height="60" as="geometry" />
        </mxCell>
        <mxCell id="j9Yn46ZGuWU1NOBtWqaZ-46" value="" style="shape=curlyBracket;whiteSpace=wrap;html=1;rounded=1;labelPosition=left;verticalLabelPosition=middle;align=right;verticalAlign=middle;rotation=-90;size=0.5;fontStyle=0;fontSize=22;strokeWidth=3;" vertex="1" parent="1">
          <mxGeometry x="1197.5" y="297.5" width="20" height="265" as="geometry" />
        </mxCell>
        <mxCell id="j9Yn46ZGuWU1NOBtWqaZ-47" value="&lt;b&gt;&lt;font style=&quot;font-size: 16px;&quot;&gt;Classification&lt;/font&gt;&lt;/b&gt;" style="text;html=1;align=center;verticalAlign=middle;resizable=0;points=[];autosize=1;strokeColor=none;fillColor=none;" vertex="1" parent="1">
          <mxGeometry x="1145" y="441.25" width="130" height="30" as="geometry" />
        </mxCell>
        <mxCell id="j9Yn46ZGuWU1NOBtWqaZ-48" value="" style="shape=curlyBracket;whiteSpace=wrap;html=1;rounded=1;labelPosition=left;verticalLabelPosition=middle;align=right;verticalAlign=middle;rotation=-90;size=0.5;fontStyle=0;fontSize=22;strokeWidth=3;" vertex="1" parent="1">
          <mxGeometry x="650" y="350" width="20" height="370" as="geometry" />
        </mxCell>
        <mxCell id="j9Yn46ZGuWU1NOBtWqaZ-49" value="&lt;b&gt;&lt;font style=&quot;font-size: 16px;&quot;&gt;Temporal Dependency&amp;nbsp;&lt;/font&gt;&lt;/b&gt;" style="text;html=1;align=center;verticalAlign=middle;resizable=0;points=[];autosize=1;strokeColor=none;fillColor=none;" vertex="1" parent="1">
          <mxGeometry x="560" y="550" width="200" height="30" as="geometry" />
        </mxCell>
        <mxCell id="j9Yn46ZGuWU1NOBtWqaZ-50" value="" style="shape=curlyBracket;whiteSpace=wrap;html=1;rounded=1;labelPosition=left;verticalLabelPosition=middle;align=right;verticalAlign=middle;rotation=-90;size=0.5;fontStyle=0;fontSize=22;strokeWidth=3;" vertex="1" parent="1">
          <mxGeometry x="340" y="360" width="20" height="170" as="geometry" />
        </mxCell>
        <mxCell id="j9Yn46ZGuWU1NOBtWqaZ-51" value="&lt;b&gt;&lt;font style=&quot;font-size: 16px;&quot;&gt;Feature Extraction&lt;/font&gt;&lt;/b&gt;" style="text;html=1;align=center;verticalAlign=middle;resizable=0;points=[];autosize=1;strokeColor=none;fillColor=none;" vertex="1" parent="1">
          <mxGeometry x="270" y="460" width="160" height="30" as="geometry" />
        </mxCell>
        <mxCell id="j9Yn46ZGuWU1NOBtWqaZ-52" value="" style="group" vertex="1" connectable="0" parent="1">
          <mxGeometry x="480" y="290" width="420" height="220" as="geometry" />
        </mxCell>
        <mxCell id="j9Yn46ZGuWU1NOBtWqaZ-53" value="" style="rounded=1;whiteSpace=wrap;html=1;fillColor=#D6D6D6;" vertex="1" parent="j9Yn46ZGuWU1NOBtWqaZ-52">
          <mxGeometry width="362.35294117647055" height="220" as="geometry" />
        </mxCell>
        <mxCell id="j9Yn46ZGuWU1NOBtWqaZ-54" value="" style="ellipse;whiteSpace=wrap;html=1;aspect=fixed;fillColor=#808080;" vertex="1" parent="j9Yn46ZGuWU1NOBtWqaZ-52">
          <mxGeometry x="57.647058823529406" y="34.375" width="27.273877292852625" height="27.273877292852625" as="geometry" />
        </mxCell>
        <mxCell id="j9Yn46ZGuWU1NOBtWqaZ-55" value="" style="ellipse;whiteSpace=wrap;html=1;aspect=fixed;fillColor=#808080;" vertex="1" parent="j9Yn46ZGuWU1NOBtWqaZ-52">
          <mxGeometry x="57.647058823529406" y="96.25" width="27.273877292852625" height="27.273877292852625" as="geometry" />
        </mxCell>
        <mxCell id="j9Yn46ZGuWU1NOBtWqaZ-56" value="" style="ellipse;whiteSpace=wrap;html=1;aspect=fixed;fillColor=#808080;" vertex="1" parent="j9Yn46ZGuWU1NOBtWqaZ-52">
          <mxGeometry x="57.647058823529406" y="158.125" width="27.273877292852625" height="27.273877292852625" as="geometry" />
        </mxCell>
        <mxCell id="j9Yn46ZGuWU1NOBtWqaZ-57" value="" style="endArrow=none;html=1;rounded=0;" edge="1" parent="j9Yn46ZGuWU1NOBtWqaZ-52">
          <mxGeometry width="50" height="50" relative="1" as="geometry">
            <mxPoint x="24.705882352941174" y="171.875" as="sourcePoint" />
            <mxPoint x="24.705882352941174" y="48.125" as="targetPoint" />
          </mxGeometry>
        </mxCell>
        <mxCell id="j9Yn46ZGuWU1NOBtWqaZ-58" value="" style="endArrow=classic;html=1;rounded=0;entryX=0;entryY=0.5;entryDx=0;entryDy=0;" edge="1" parent="j9Yn46ZGuWU1NOBtWqaZ-52" target="j9Yn46ZGuWU1NOBtWqaZ-54">
          <mxGeometry width="50" height="50" relative="1" as="geometry">
            <mxPoint x="24.705882352941174" y="48.125" as="sourcePoint" />
            <mxPoint x="181.17647058823528" y="110" as="targetPoint" />
          </mxGeometry>
        </mxCell>
        <mxCell id="j9Yn46ZGuWU1NOBtWqaZ-59" value="" style="endArrow=classic;html=1;rounded=0;" edge="1" parent="j9Yn46ZGuWU1NOBtWqaZ-52">
          <mxGeometry width="50" height="50" relative="1" as="geometry">
            <mxPoint x="24.705882352941174" y="171.875" as="sourcePoint" />
            <mxPoint x="57.647058823529406" y="171.875" as="targetPoint" />
          </mxGeometry>
        </mxCell>
        <mxCell id="j9Yn46ZGuWU1NOBtWqaZ-60" value="" style="endArrow=classic;html=1;rounded=0;entryX=0;entryY=0.5;entryDx=0;entryDy=0;" edge="1" parent="j9Yn46ZGuWU1NOBtWqaZ-52" target="j9Yn46ZGuWU1NOBtWqaZ-55">
          <mxGeometry width="50" height="50" relative="1" as="geometry">
            <mxPoint x="24.705882352941174" y="110" as="sourcePoint" />
            <mxPoint x="181.17647058823528" y="110" as="targetPoint" />
          </mxGeometry>
        </mxCell>
        <mxCell id="j9Yn46ZGuWU1NOBtWqaZ-61" value="" style="whiteSpace=wrap;html=1;aspect=fixed;fillColor=#FF9999;" vertex="1" parent="j9Yn46ZGuWU1NOBtWqaZ-52">
          <mxGeometry x="115.29411764705881" y="34.375" width="27.273877292852625" height="27.273877292852625" as="geometry" />
        </mxCell>
        <mxCell id="j9Yn46ZGuWU1NOBtWqaZ-62" value="" style="whiteSpace=wrap;html=1;aspect=fixed;fillColor=#FF9999;" vertex="1" parent="j9Yn46ZGuWU1NOBtWqaZ-52">
          <mxGeometry x="123.52941176470588" y="41.25" width="27.273877292852625" height="27.273877292852625" as="geometry" />
        </mxCell>
        <mxCell id="j9Yn46ZGuWU1NOBtWqaZ-63" value="" style="whiteSpace=wrap;html=1;aspect=fixed;fillColor=#FF9999;" vertex="1" parent="j9Yn46ZGuWU1NOBtWqaZ-52">
          <mxGeometry x="131.76470588235293" y="48.125" width="27.273877292852625" height="27.273877292852625" as="geometry" />
        </mxCell>
        <mxCell id="j9Yn46ZGuWU1NOBtWqaZ-64" value="" style="whiteSpace=wrap;html=1;aspect=fixed;fillColor=#CCFF99;" vertex="1" parent="j9Yn46ZGuWU1NOBtWqaZ-52">
          <mxGeometry x="115.29411764705881" y="96.25" width="27.273877292852625" height="27.273877292852625" as="geometry" />
        </mxCell>
        <mxCell id="j9Yn46ZGuWU1NOBtWqaZ-65" style="edgeStyle=orthogonalEdgeStyle;rounded=0;orthogonalLoop=1;jettySize=auto;html=1;entryX=0;entryY=0.5;entryDx=0;entryDy=0;" edge="1" parent="j9Yn46ZGuWU1NOBtWqaZ-52" source="j9Yn46ZGuWU1NOBtWqaZ-55" target="j9Yn46ZGuWU1NOBtWqaZ-64">
          <mxGeometry relative="1" as="geometry" />
        </mxCell>
        <mxCell id="j9Yn46ZGuWU1NOBtWqaZ-66" value="" style="whiteSpace=wrap;html=1;aspect=fixed;fillColor=#CCFF99;" vertex="1" parent="j9Yn46ZGuWU1NOBtWqaZ-52">
          <mxGeometry x="123.52941176470588" y="103.125" width="27.273877292852625" height="27.273877292852625" as="geometry" />
        </mxCell>
        <mxCell id="j9Yn46ZGuWU1NOBtWqaZ-67" value="" style="whiteSpace=wrap;html=1;aspect=fixed;fillColor=#CCFF99;" vertex="1" parent="j9Yn46ZGuWU1NOBtWqaZ-52">
          <mxGeometry x="131.76470588235293" y="110" width="27.273877292852625" height="27.273877292852625" as="geometry" />
        </mxCell>
        <mxCell id="j9Yn46ZGuWU1NOBtWqaZ-68" value="" style="whiteSpace=wrap;html=1;aspect=fixed;fillColor=#007FFF;" vertex="1" parent="j9Yn46ZGuWU1NOBtWqaZ-52">
          <mxGeometry x="115.29411764705881" y="158.125" width="27.273877292852625" height="27.273877292852625" as="geometry" />
        </mxCell>
        <mxCell id="j9Yn46ZGuWU1NOBtWqaZ-69" value="" style="whiteSpace=wrap;html=1;aspect=fixed;fillColor=#007FFF;" vertex="1" parent="j9Yn46ZGuWU1NOBtWqaZ-52">
          <mxGeometry x="123.52941176470588" y="165" width="27.273877292852625" height="27.273877292852625" as="geometry" />
        </mxCell>
        <mxCell id="j9Yn46ZGuWU1NOBtWqaZ-70" value="" style="whiteSpace=wrap;html=1;aspect=fixed;fillColor=#007FFF;" vertex="1" parent="j9Yn46ZGuWU1NOBtWqaZ-52">
          <mxGeometry x="131.76470588235293" y="171.875" width="27.273877292852625" height="27.273877292852625" as="geometry" />
        </mxCell>
        <mxCell id="j9Yn46ZGuWU1NOBtWqaZ-71" value="" style="endArrow=classic;html=1;rounded=0;exitX=1;exitY=0.5;exitDx=0;exitDy=0;entryX=0;entryY=0.5;entryDx=0;entryDy=0;" edge="1" parent="j9Yn46ZGuWU1NOBtWqaZ-52" source="j9Yn46ZGuWU1NOBtWqaZ-56" target="j9Yn46ZGuWU1NOBtWqaZ-68">
          <mxGeometry width="50" height="50" relative="1" as="geometry">
            <mxPoint x="140" y="144.375" as="sourcePoint" />
            <mxPoint x="181.17647058823528" y="110" as="targetPoint" />
          </mxGeometry>
        </mxCell>
        <mxCell id="j9Yn46ZGuWU1NOBtWqaZ-72" value="" style="endArrow=classic;html=1;rounded=0;exitX=1;exitY=0.5;exitDx=0;exitDy=0;entryX=0;entryY=0.5;entryDx=0;entryDy=0;" edge="1" parent="j9Yn46ZGuWU1NOBtWqaZ-52" source="j9Yn46ZGuWU1NOBtWqaZ-54" target="j9Yn46ZGuWU1NOBtWqaZ-61">
          <mxGeometry width="50" height="50" relative="1" as="geometry">
            <mxPoint x="140" y="144.375" as="sourcePoint" />
            <mxPoint x="181.17647058823528" y="110" as="targetPoint" />
          </mxGeometry>
        </mxCell>
        <mxCell id="j9Yn46ZGuWU1NOBtWqaZ-73" value="" style="ellipse;whiteSpace=wrap;html=1;aspect=fixed;" vertex="1" parent="j9Yn46ZGuWU1NOBtWqaZ-52">
          <mxGeometry x="214.11764705882354" y="75.625" width="27.273877292852625" height="27.273877292852625" as="geometry" />
        </mxCell>
        <mxCell id="j9Yn46ZGuWU1NOBtWqaZ-74" style="edgeStyle=orthogonalEdgeStyle;rounded=0;orthogonalLoop=1;jettySize=auto;html=1;entryX=0.5;entryY=0;entryDx=0;entryDy=0;" edge="1" parent="j9Yn46ZGuWU1NOBtWqaZ-52" source="j9Yn46ZGuWU1NOBtWqaZ-63" target="j9Yn46ZGuWU1NOBtWqaZ-73">
          <mxGeometry relative="1" as="geometry">
            <Array as="points">
              <mxPoint x="230.58823529411762" y="61.875" />
            </Array>
          </mxGeometry>
        </mxCell>
        <mxCell id="j9Yn46ZGuWU1NOBtWqaZ-75" value="" style="endArrow=none;html=1;rounded=0;entryX=1;entryY=0;entryDx=0;entryDy=0;exitX=0;exitY=1;exitDx=0;exitDy=0;" edge="1" parent="j9Yn46ZGuWU1NOBtWqaZ-52" source="j9Yn46ZGuWU1NOBtWqaZ-73" target="j9Yn46ZGuWU1NOBtWqaZ-73">
          <mxGeometry width="50" height="50" relative="1" as="geometry">
            <mxPoint x="164.70588235294116" y="158.125" as="sourcePoint" />
            <mxPoint x="205.88235294117646" y="123.75" as="targetPoint" />
          </mxGeometry>
        </mxCell>
        <mxCell id="j9Yn46ZGuWU1NOBtWqaZ-76" style="edgeStyle=orthogonalEdgeStyle;rounded=0;orthogonalLoop=1;jettySize=auto;html=1;entryX=0.5;entryY=1;entryDx=0;entryDy=0;" edge="1" parent="j9Yn46ZGuWU1NOBtWqaZ-52" source="j9Yn46ZGuWU1NOBtWqaZ-67" target="j9Yn46ZGuWU1NOBtWqaZ-73">
          <mxGeometry relative="1" as="geometry" />
        </mxCell>
        <mxCell id="j9Yn46ZGuWU1NOBtWqaZ-77" value="" style="endArrow=none;html=1;rounded=0;entryX=0;entryY=0;entryDx=0;entryDy=0;exitX=1;exitY=1;exitDx=0;exitDy=0;" edge="1" parent="j9Yn46ZGuWU1NOBtWqaZ-52" source="j9Yn46ZGuWU1NOBtWqaZ-73" target="j9Yn46ZGuWU1NOBtWqaZ-73">
          <mxGeometry width="50" height="50" relative="1" as="geometry">
            <mxPoint x="164.70588235294116" y="158.125" as="sourcePoint" />
            <mxPoint x="205.88235294117646" y="123.75" as="targetPoint" />
          </mxGeometry>
        </mxCell>
        <mxCell id="j9Yn46ZGuWU1NOBtWqaZ-78" value="" style="edgeStyle=orthogonalEdgeStyle;rounded=0;orthogonalLoop=1;jettySize=auto;html=1;" edge="1" parent="j9Yn46ZGuWU1NOBtWqaZ-52" source="j9Yn46ZGuWU1NOBtWqaZ-79">
          <mxGeometry relative="1" as="geometry">
            <mxPoint x="360" y="117" as="targetPoint" />
          </mxGeometry>
        </mxCell>
        <mxCell id="j9Yn46ZGuWU1NOBtWqaZ-79" value="" style="ellipse;whiteSpace=wrap;html=1;aspect=fixed;" vertex="1" parent="j9Yn46ZGuWU1NOBtWqaZ-52">
          <mxGeometry x="296.4705882352941" y="103.125" width="27.273877292852625" height="27.273877292852625" as="geometry" />
        </mxCell>
        <mxCell id="j9Yn46ZGuWU1NOBtWqaZ-80" value="" style="endArrow=none;html=1;rounded=0;entryX=1;entryY=0;entryDx=0;entryDy=0;exitX=0;exitY=1;exitDx=0;exitDy=0;" edge="1" parent="j9Yn46ZGuWU1NOBtWqaZ-52" source="j9Yn46ZGuWU1NOBtWqaZ-79" target="j9Yn46ZGuWU1NOBtWqaZ-79">
          <mxGeometry width="50" height="50" relative="1" as="geometry">
            <mxPoint x="247.05882352941177" y="185.625" as="sourcePoint" />
            <mxPoint x="288.2352941176471" y="151.25" as="targetPoint" />
          </mxGeometry>
        </mxCell>
        <mxCell id="j9Yn46ZGuWU1NOBtWqaZ-81" value="" style="endArrow=none;html=1;rounded=0;entryX=0;entryY=0;entryDx=0;entryDy=0;exitX=1;exitY=1;exitDx=0;exitDy=0;" edge="1" parent="j9Yn46ZGuWU1NOBtWqaZ-52" source="j9Yn46ZGuWU1NOBtWqaZ-79" target="j9Yn46ZGuWU1NOBtWqaZ-79">
          <mxGeometry width="50" height="50" relative="1" as="geometry">
            <mxPoint x="247.05882352941177" y="185.625" as="sourcePoint" />
            <mxPoint x="288.2352941176471" y="151.25" as="targetPoint" />
          </mxGeometry>
        </mxCell>
        <mxCell id="j9Yn46ZGuWU1NOBtWqaZ-82" value="&lt;b&gt;&lt;font style=&quot;font-size: 18px;&quot;&gt;Multi-Head Attention&lt;/font&gt;&lt;/b&gt;" style="text;html=1;align=center;verticalAlign=middle;resizable=0;points=[];autosize=1;strokeColor=none;fillColor=none;" vertex="1" parent="j9Yn46ZGuWU1NOBtWqaZ-52">
          <mxGeometry x="98.8235294117647" width="200" height="40" as="geometry" />
        </mxCell>
        <mxCell id="j9Yn46ZGuWU1NOBtWqaZ-83" style="edgeStyle=orthogonalEdgeStyle;rounded=0;orthogonalLoop=1;jettySize=auto;html=1;entryX=0.5;entryY=1;entryDx=0;entryDy=0;" edge="1" parent="j9Yn46ZGuWU1NOBtWqaZ-52" source="j9Yn46ZGuWU1NOBtWqaZ-70" target="j9Yn46ZGuWU1NOBtWqaZ-79">
          <mxGeometry relative="1" as="geometry" />
        </mxCell>
        <mxCell id="j9Yn46ZGuWU1NOBtWqaZ-84" style="edgeStyle=orthogonalEdgeStyle;rounded=0;orthogonalLoop=1;jettySize=auto;html=1;entryX=0.5;entryY=0;entryDx=0;entryDy=0;" edge="1" parent="j9Yn46ZGuWU1NOBtWqaZ-52" source="j9Yn46ZGuWU1NOBtWqaZ-73" target="j9Yn46ZGuWU1NOBtWqaZ-79">
          <mxGeometry relative="1" as="geometry" />
        </mxCell>
        <mxCell id="j9Yn46ZGuWU1NOBtWqaZ-86" value="&lt;b style=&quot;border-color: var(--border-color); color: rgb(0, 0, 0); font-family: Helvetica; font-size: 12px; font-style: normal; font-variant-ligatures: normal; font-variant-caps: normal; letter-spacing: normal; orphans: 2; text-align: center; text-indent: 0px; text-transform: none; widows: 2; word-spacing: 0px; -webkit-text-stroke-width: 0px; background-color: rgb(251, 251, 251); text-decoration-thickness: initial; text-decoration-style: initial; text-decoration-color: initial;&quot;&gt;&lt;font style=&quot;border-color: var(--border-color); font-size: 19px;&quot;&gt;Short Term Dependency&lt;/font&gt;&lt;/b&gt;" style="text;whiteSpace=wrap;html=1;" vertex="1" parent="j9Yn46ZGuWU1NOBtWqaZ-52">
          <mxGeometry x="73.81999999999994" y="-30" width="250" height="50" as="geometry" />
        </mxCell>
        <mxCell id="j9Yn46ZGuWU1NOBtWqaZ-85" value="&lt;b&gt;&lt;font style=&quot;font-size: 19px;&quot;&gt;Long Term Dependency&lt;/font&gt;&lt;/b&gt;" style="text;html=1;align=center;verticalAlign=middle;resizable=0;points=[];autosize=1;strokeColor=none;fillColor=none;" vertex="1" parent="1">
          <mxGeometry x="540" width="240" height="40" as="geometry" />
        </mxCell>
        <mxCell id="j9Yn46ZGuWU1NOBtWqaZ-97" style="edgeStyle=orthogonalEdgeStyle;rounded=0;orthogonalLoop=1;jettySize=auto;html=1;" edge="1" parent="1" source="j9Yn46ZGuWU1NOBtWqaZ-94" target="j9Yn46ZGuWU1NOBtWqaZ-42">
          <mxGeometry relative="1" as="geometry" />
        </mxCell>
        <mxCell id="j9Yn46ZGuWU1NOBtWqaZ-94" value="&lt;b&gt;Concatenation&amp;nbsp;&lt;br&gt;&lt;/b&gt;" style="rounded=1;whiteSpace=wrap;html=1;fontSize=20;rotation=-90;" vertex="1" parent="1">
          <mxGeometry x="890" y="240" width="220" height="60" as="geometry" />
        </mxCell>
        <mxCell id="j9Yn46ZGuWU1NOBtWqaZ-95" style="edgeStyle=orthogonalEdgeStyle;rounded=0;orthogonalLoop=1;jettySize=auto;html=1;entryX=0.532;entryY=-0.037;entryDx=0;entryDy=0;entryPerimeter=0;" edge="1" parent="1" source="j9Yn46ZGuWU1NOBtWqaZ-9" target="j9Yn46ZGuWU1NOBtWqaZ-94">
          <mxGeometry relative="1" as="geometry" />
        </mxCell>
        <mxCell id="j9Yn46ZGuWU1NOBtWqaZ-96" style="edgeStyle=orthogonalEdgeStyle;rounded=0;orthogonalLoop=1;jettySize=auto;html=1;entryX=0.532;entryY=0.012;entryDx=0;entryDy=0;entryPerimeter=0;" edge="1" parent="1" source="j9Yn46ZGuWU1NOBtWqaZ-53" target="j9Yn46ZGuWU1NOBtWqaZ-94">
          <mxGeometry relative="1" as="geometry" />
        </mxCell>
      </root>
    </mxGraphModel>
  </diagram>
</mxfile>
